<svg width="41" height="41" viewBox="0 0 41 41" fill="none" xmlns="http://www.w3.org/2000/svg">
<path d="M37.5834 8.849L18.0913 28.3582L10.848 21.1148L13.2567 18.7061L18.0913 23.5407L35.1747 6.45734L37.5834 8.849ZM33.808 17.459C34.0301 18.4328 34.1667 19.4578 34.1667 20.4998C34.1667 28.0507 28.0509 34.1665 20.5001 34.1665C12.9492 34.1665 6.83341 28.0507 6.83341 20.4998C6.83341 12.949 12.9492 6.83317 20.5001 6.83317C23.1992 6.83317 25.6934 7.619 27.8117 8.96859L30.2717 6.50859C27.5042 4.56109 24.1388 3.4165 20.5001 3.4165C11.0701 3.4165 3.41675 11.0698 3.41675 20.4998C3.41675 29.9298 11.0701 37.5832 20.5001 37.5832C29.9301 37.5832 37.5834 29.9298 37.5834 20.4998C37.5834 18.4669 37.2076 16.5194 36.5584 14.7086L33.808 17.459Z" fill="white"/>
</svg>
