<svg width="29" height="30" viewBox="0 0 29 30" fill="none" xmlns="http://www.w3.org/2000/svg">
<path d="M14.4993 2.9165C9.8231 2.9165 6.04102 6.69859 6.04102 11.3748C6.04102 17.7186 14.4993 27.0832 14.4993 27.0832C14.4993 27.0832 22.9577 17.7186 22.9577 11.3748C22.9577 6.69859 19.1756 2.9165 14.4993 2.9165ZM8.45768 11.3748C8.45768 8.03984 11.1643 5.33317 14.4993 5.33317C17.8343 5.33317 20.541 8.03984 20.541 11.3748C20.541 14.8548 17.061 20.0628 14.4993 23.3132C11.986 20.0869 8.45768 14.8186 8.45768 11.3748Z" fill="#33CB98"/>
<path d="M14.4993 14.3957C16.1677 14.3957 17.5202 13.0432 17.5202 11.3748C17.5202 9.70648 16.1677 8.354 14.4993 8.354C12.831 8.354 11.4785 9.70648 11.4785 11.3748C11.4785 13.0432 12.831 14.3957 14.4993 14.3957Z" fill="#33CB98"/>
</svg>
