<svg width="29" height="30" viewBox="0 0 29 30" fill="none" xmlns="http://www.w3.org/2000/svg">
<path d="M7.9025 6.54167C7.975 7.61708 8.15625 8.66833 8.44625 9.67125L6.99625 11.1213C6.50083 9.67125 6.18667 8.13667 6.07792 6.54167H7.9025ZM19.8167 21.0658C20.8438 21.3558 21.895 21.5371 22.9583 21.6096V23.41C21.3633 23.3013 19.8288 22.9871 18.3667 22.5037L19.8167 21.0658ZM9.0625 4.125H4.83333C4.16875 4.125 3.625 4.66875 3.625 5.33333C3.625 16.6796 12.8204 25.875 24.1667 25.875C24.8313 25.875 25.375 25.3313 25.375 24.6667V20.4496C25.375 19.785 24.8313 19.2413 24.1667 19.2413C22.6683 19.2413 21.2063 18.9996 19.8529 18.5525C19.7321 18.5042 19.5992 18.4921 19.4783 18.4921C19.1642 18.4921 18.8621 18.6129 18.6204 18.8425L15.9621 21.5008C12.5425 19.7487 9.73917 16.9575 7.99917 13.5379L10.6575 10.8796C10.9958 10.5413 11.0925 10.07 10.9596 9.64708C10.5125 8.29375 10.2708 6.84375 10.2708 5.33333C10.2708 4.66875 9.72708 4.125 9.0625 4.125Z" fill="#33CB98"/>
</svg>
