<svg width="40" height="40" viewBox="0 0 40 40" fill="none" xmlns="http://www.w3.org/2000/svg">
<path d="M18.3333 13.3333V21.6667L25.4167 25.8667L26.7 23.7333L20.8333 20.25V13.3333H18.3333ZM35 16.6667V5L30.6 9.4C27.9 6.68333 24.15 5 20 5C11.7167 5 5 11.7167 5 20C5 28.2833 11.7167 35 20 35C28.2833 35 35 28.2833 35 20H31.6667C31.6667 26.4333 26.4333 31.6667 20 31.6667C13.5667 31.6667 8.33333 26.4333 8.33333 20C8.33333 13.5667 13.5667 8.33333 20 8.33333C23.2167 8.33333 26.1333 9.65 28.25 11.75L23.3333 16.6667H35Z" fill="black"/>
</svg>
