<svg width="60" height="53" viewBox="0 0 60 53" fill="none" xmlns="http://www.w3.org/2000/svg">
<path d="M14.4276 51.8905C14.7823 52.503 15.4344 52.8824 16.1422 52.8882L30 53L43.8578 52.8882C44.5656 52.8824 45.2177 52.503 45.5724 51.8905L52.6033 39.75L59.4558 27.4749C59.794 26.869 59.794 26.131 59.4558 25.5251L52.6033 13.25L45.5724 1.10948C45.2177 0.496964 44.5656 0.117558 43.8578 0.111843L30 0L16.1422 0.111843C15.4344 0.117554 14.7823 0.496956 14.4276 1.10948L7.39674 13.25L0.544216 25.5251C0.205973 26.131 0.205973 26.869 0.544217 27.4749L7.39674 39.75L14.4276 51.8905Z" fill="#1D1D1D"/>
<path d="M24.3428 32.6568L35.6566 21.3429M35.6566 21.3429V31.3024M35.6566 21.3429H25.9136" stroke="#33CC99"/>
</svg>
