<svg width="29" height="29" viewBox="0 0 29 29" fill="none" xmlns="http://www.w3.org/2000/svg">
<path fill-rule="evenodd" clip-rule="evenodd" d="M27.4537 7.47656C27.6553 6.83766 27.4537 6.3732 26.5616 6.3732H23.5953C22.8471 6.3732 22.5016 6.77988 22.3 7.21488C22.3 7.21488 20.7741 10.9305 18.6433 13.3394C17.9522 14.0361 17.6356 14.2683 17.2612 14.2683C17.0596 14.2683 16.8002 14.0361 16.8002 13.3978V7.44654C16.8002 6.69209 16.5702 6.34375 15.9364 6.34375H11.2715C10.8104 6.34375 10.5227 6.69209 10.5227 7.04043C10.5227 7.766 11.5881 7.94045 11.7031 9.97215V14.3867C11.7031 15.3445 11.5332 15.5195 11.1559 15.5195C10.1483 15.5195 7.70086 11.775 6.23273 7.50828C5.94727 6.6632 5.65727 6.34375 4.90848 6.34375H1.91389C1.05012 6.34375 0.90625 6.74986 0.90625 7.18543C0.90625 7.96934 1.91389 11.9166 5.59949 17.1412C8.04693 20.7095 11.5309 22.6274 14.6694 22.6274C16.5702 22.6274 16.8002 22.1918 16.8002 21.4662V18.7667C16.8002 17.8962 16.9729 17.7512 17.5779 17.7512C18.0095 17.7512 18.7871 17.9828 20.5436 19.6956C22.5588 21.7273 22.9043 22.6562 24.0275 22.6562H26.9932C27.857 22.6562 28.2603 22.2207 28.0297 21.379C27.7709 20.5373 26.7916 19.3184 25.5245 17.8673C24.8335 17.0551 23.797 16.155 23.4804 15.7195C23.0488 15.1389 23.1637 14.9067 23.4804 14.3845C23.4515 14.3845 27.0799 9.2177 27.4537 7.4743" fill="#33CC99"/>
</svg>
