<svg width="40" height="40" viewBox="0 0 40 40" fill="none" xmlns="http://www.w3.org/2000/svg">
<path d="M20 3.33325C13.55 3.33325 8.33337 8.54992 8.33337 14.9999C8.33337 23.7499 20 36.6666 20 36.6666C20 36.6666 31.6667 23.7499 31.6667 14.9999C31.6667 8.54992 26.45 3.33325 20 3.33325ZM11.6667 14.9999C11.6667 10.3999 15.4 6.66659 20 6.66659C24.6 6.66659 28.3334 10.3999 28.3334 14.9999C28.3334 19.7999 23.5334 26.9833 20 31.4666C16.5334 27.0166 11.6667 19.7499 11.6667 14.9999Z" fill="black"/>
<path d="M20 19.1666C22.3012 19.1666 24.1667 17.3011 24.1667 14.9999C24.1667 12.6987 22.3012 10.8333 20 10.8333C17.6989 10.8333 15.8334 12.6987 15.8334 14.9999C15.8334 17.3011 17.6989 19.1666 20 19.1666Z" fill="black"/>
</svg>
