<svg width="41" height="41" viewBox="0 0 41 41" fill="none" xmlns="http://www.w3.org/2000/svg">
<path d="M37.5846 8.84913L18.0926 28.3583L10.8492 21.115L13.258 18.7062L18.0926 23.5408L35.1759 6.45746L37.5846 8.84913ZM33.8092 17.4591C34.0313 18.4329 34.168 19.4579 34.168 20.5C34.168 28.0508 28.0521 34.1666 20.5013 34.1666C12.9505 34.1666 6.83464 28.0508 6.83464 20.5C6.83464 12.9491 12.9505 6.83329 20.5013 6.83329C23.2005 6.83329 25.6946 7.61913 27.813 8.96871L30.273 6.50871C27.5055 4.56121 24.1401 3.41663 20.5013 3.41663C11.0713 3.41663 3.41797 11.07 3.41797 20.5C3.41797 29.93 11.0713 37.5833 20.5013 37.5833C29.9313 37.5833 37.5846 29.93 37.5846 20.5C37.5846 18.467 37.2088 16.5195 36.5596 14.7087L33.8092 17.4591Z" fill="#1D1D1D"/>
</svg>
